# xmcd
#
# Track frame offsets:
#	150
#	17609
#	34075
#	51461
#	65579
#	84684
#	106409
#	120511
#	135183
#	152469
#	169348
#	186356
#	206471
#	223605
#	240163
#	260038
#	283350
#
# Disc length: 3983 seconds
#
# Revision: 1
# Processed by: cddbd v1.5.1PL0 Copyright (c) Steve Scherf et al.
# Submitted via: audiograbber 1.83.01
#
DISCID=f30f8d11
DTITLE=Νικος Καραβελας - Dream High III love songs
DYEAR=2005
DGENRE=
TTITLE0=Blake Shelton - Underneath the same moon
TTITLE1=Chad Brock - Tell me how
TTITLE2=Chalee Tennison - I can feel you drifting
TTITLE3=Daryle Singletary - Would these arms be in your way
TTITLE4=Trick Pony - Love be still
TTITLE5=Rick Trevino - In my dreams
TTITLE6=Dwight Yoakam - Lonesome roads
TTITLE7=Isle Delange - If you had the heart
TTITLE8=Big and Rich - Holy water
TTITLE9=Craig Morgan - Everywhere I go
TTITLE10=Dusty Drake - One last time
TTITLE11=John Micheal Montgomery - Letters from home
TTITLE12=Travis Tritt - Anymore
TTITLE13=Emmylou Harris - Gram Parsons - Love hurts
TTITLE14=Randy Travis - Are we in trouble now
TTITLE15=Blue Rodeo - Bad timing
TTITLE16=George Jones - Choices
EXTD=
EXTT0=
EXTT1=
EXTT2=
EXTT3=
EXTT4=
EXTT5=
EXTT6=
EXTT7=
EXTT8=
EXTT9=
EXTT10=
EXTT11=
EXTT12=
EXTT13=
EXTT14=
EXTT15=
EXTT16=
PLAYORDER=
